<?xml version="1.0" encoding="iso-8859-1"?>
<!-- Generator: Adobe Illustrator 19.0.0, SVG Export Plug-In . SVG Version: 6.00 Build 0)  -->
<svg version="1.1" id="Layer_1" xmlns="http://www.w3.org/2000/svg" xmlns:xlink="http://www.w3.org/1999/xlink" x="0px" y="0px"
	 viewBox="0 0 512 512" style="enable-background:new 0 0 512 512;" xml:space="preserve">
<path style="fill:#088443;" d="M386.954,242.245l-205.042,18.197l-15.064,46.184l-41.803-64.382v103.092v15.173
	c0,17.067,13.835,30.901,30.901,30.901h4.933h31.264h127.699h31.276h4.922c17.078,0,30.913-13.835,30.913-30.901v-15.173
	L386.954,242.245z"/>
<path style="fill:#666666;" d="M375.07,11.34c0-6.263-5.077-11.34-11.34-11.34s-11.34,5.077-11.34,11.34
	c0,4.195,2.284,7.848,5.67,9.81v158.18h11.34V21.15C372.786,19.188,375.07,15.535,375.07,11.34z"/>
<path style="fill:#088443;" d="M324.686,107.242h-17.01V81.466c0-5.733-4.664-10.399-10.399-10.399h-82.566
	c-5.735,0-10.399,4.665-10.399,10.399v25.776h-17.01V81.466c0-15.113,12.296-27.409,27.409-27.409h82.568
	c15.113,0,27.409,12.296,27.409,27.409v25.776H324.686z"/>
<g>
	<path style="fill:#0B9B53;" d="M419.035,422.323v43.625c0,17.067-13.835,30.901-30.913,30.901H351.12v-59.172h37.014
		c14.379,0,26.467-9.82,29.915-23.122C418.695,417.039,419.035,419.647,419.035,422.323z"/>
	<rect x="192.145" y="437.678" style="fill:#0B9B53;" width="127.699" height="59.172"/>
	<path style="fill:#0B9B53;" d="M160.88,437.678v59.172h-37.014c-17.067,0-30.901-13.835-30.901-30.901v-43.625
		c0-2.676,0.34-5.284,0.987-7.768c3.447,13.302,15.536,23.122,29.915,23.122L160.88,437.678L160.88,437.678z"/>
</g>
<g>
	<path style="fill:#088443;" d="M388.122,411.822c14.39,0,26.479,9.832,29.926,23.145c-3.447,13.302-15.536,23.122-29.915,23.122
		H351.12v-46.267h4.922H388.122z"/>
	<rect x="192.145" y="411.823" style="fill:#088443;" width="127.699" height="46.267"/>
	<path style="fill:#088443;" d="M160.88,411.822v46.267h-37.014c-14.379,0-26.468-9.82-29.915-23.122
		c3.447-13.313,15.536-23.145,29.915-23.145h32.081L160.88,411.822L160.88,411.822z"/>
</g>
<g>
	<path style="fill:#06B559;" d="M461.594,242.245v84.211c0,17.078-13.846,30.913-30.913,30.913h-12.826
		c-17.067,0-30.901-13.835-30.901-30.913v-14.991v-69.219H461.594z"/>
	<path style="fill:#06B559;" d="M461.594,173.66v34.031h-74.64V173.66c0-17.067,13.835-30.901,30.901-30.901h12.826
		C447.748,142.759,461.594,156.594,461.594,173.66z"/>
	<path style="fill:#06B559;" d="M388.122,391.411c14.39,0,26.479,9.832,29.926,23.145c-3.447,13.302-15.536,23.122-29.915,23.122
		H351.12v-46.267h4.922L388.122,391.411L388.122,391.411z"/>
</g>
<path style="fill:#0B9B53;" d="M386.954,242.245v78.677H125.046v-78.677v-34.553V173.66v-13.914c0,17.067,261.908,17.067,261.908,0
	v13.914v34.031V242.245z"/>
<path style="fill:#088443;" d="M386.954,155.732v26.694c0,17.067-13.835,30.913-30.913,30.913h-21.206H303.56h-95.12h-31.276
	h-21.217c-17.067,0-30.901-13.846-30.901-30.913v-26.694c0-17.078,13.835-30.913,30.901-30.913h39.86h120.374h39.86
	C373.119,124.819,386.954,138.654,386.954,155.732z"/>
<path style="fill:#06B559;" d="M386.954,133.052v26.694c0,17.067-13.835,30.913-30.913,30.913h-21.206H303.56h-95.12h-31.276
	h-21.217c-17.067,0-30.901-13.846-30.901-30.913v-26.694c0-17.078,13.835-30.913,30.901-30.913h39.86h120.374h39.86
	C373.119,102.139,386.954,115.974,386.954,133.052z"/>
<g>
	<polygon style="fill:#666666;" points="334.836,190.659 334.836,235.055 303.56,235.055 303.56,190.659 303.56,152.965 
		334.836,152.965 	"/>
	<polygon style="fill:#666666;" points="208.44,190.659 208.44,235.055 177.164,235.055 177.164,190.659 177.164,152.965 
		208.44,152.965 	"/>
</g>
<g>
	<rect x="192.145" y="391.411" style="fill:#06B559;" width="127.699" height="46.267"/>
	<path style="fill:#06B559;" d="M160.88,391.411v46.267h-37.014c-14.379,0-26.468-9.82-29.915-23.122
		c3.447-13.313,15.536-23.145,29.915-23.145h32.081H160.88z"/>
	<path style="fill:#06B559;" d="M125.046,242.245v69.219h-0.567v20.9c-2.756,14.254-15.298,25.005-30.346,25.005H81.308
		c-17.067,0-30.901-13.835-30.901-30.913v-84.211L125.046,242.245L125.046,242.245z"/>
	<path style="fill:#06B559;" d="M125.046,173.66v34.031h-74.64V173.66c0-17.067,13.835-30.901,30.901-30.901h12.826
		C111.2,142.759,125.046,156.594,125.046,173.66z"/>
</g>
<g>
	<path style="fill:#0B9B53;" d="M77.52,357.13c1.247,0.159,2.517,0.238,3.799,0.238h12.826c17.067,0,30.901-13.835,30.901-30.913
		v-84.211h-20.378v84.211C104.668,342.263,92.818,355.293,77.52,357.13z"/>
	<path style="fill:#0B9B53;" d="M77.543,142.997c15.286,1.848,27.125,14.878,27.125,30.663v34.031h20.378V173.66
		c0-17.067-13.835-30.901-30.901-30.901H81.319C80.038,142.759,78.779,142.838,77.543,142.997z"/>
	<path style="fill:#0B9B53;" d="M434.48,357.13c-1.247,0.159-2.517,0.238-3.799,0.238h-12.826
		c-17.067,0-30.901-13.835-30.901-30.913v-84.211h20.378v84.211C407.332,342.263,419.182,355.293,434.48,357.13z"/>
	<path style="fill:#0B9B53;" d="M434.457,142.997c-15.286,1.848-27.125,14.878-27.125,30.663v34.031h-20.378V173.66
		c0-17.067,13.835-30.901,30.901-30.901h12.826C431.962,142.759,433.221,142.838,434.457,142.997z"/>
</g>
<polygon style="fill:#666666;" points="474.261,206.18 474.261,243.756 461.594,243.756 386.954,243.756 386.954,206.18 
	461.594,206.18 "/>
<polygon style="fill:#4D4D4D;" points="416.049,206.18 416.049,243.756 411.827,243.756 386.954,243.756 386.954,206.18 
	411.827,206.18 "/>
<polygon style="fill:#666666;" points="125.046,206.18 125.046,243.756 50.406,243.756 37.739,243.756 37.739,206.18 50.406,206.18 
	"/>
<polygon style="fill:#4D4D4D;" points="125.046,206.18 125.046,243.756 120.825,243.756 95.951,243.756 95.951,206.18 
	120.825,206.18 "/>
<g>
	<polygon style="fill:#666666;" points="192.145,496.127 192.145,512 160.88,512 160.88,496.127 160.88,434.133 160.88,385.659 
		160.88,337.648 192.145,337.648 192.145,385.659 192.145,434.133 	"/>
	<polygon style="fill:#666666;" points="351.12,496.127 351.12,512 319.844,512 319.844,496.127 319.844,434.133 319.844,385.659 
		319.844,337.648 351.12,337.648 351.12,385.659 351.12,434.133 	"/>
</g>
<g>
	<polygon style="fill:#4D4D4D;" points="351.12,352.439 351.12,354.752 319.844,354.752 319.844,352.439 319.844,343.399 
		319.844,336.331 319.844,329.332 351.12,329.332 351.12,336.331 351.12,343.399 	"/>
	<polygon style="fill:#4D4D4D;" points="192.15,352.439 192.15,354.752 160.875,354.752 160.875,352.439 160.875,343.399 
		160.875,336.331 160.875,329.332 192.15,329.332 192.15,336.331 192.15,343.399 	"/>
	<polygon style="fill:#4D4D4D;" points="351.12,510.443 351.12,512 319.844,512 319.844,510.443 319.844,504.361 319.844,499.605 
		319.844,494.896 351.12,494.896 351.12,499.605 351.12,504.361 	"/>
	<polygon style="fill:#4D4D4D;" points="192.15,510.443 192.15,512 160.875,512 160.875,510.443 160.875,504.361 160.875,499.605 
		160.875,494.896 192.15,494.896 192.15,499.605 192.15,504.361 	"/>
</g>
<polygon style="fill:#666666;" points="386.954,326.455 386.954,345.336 351.12,345.336 192.145,345.336 125.046,345.336 
	125.046,326.455 125.046,311.464 386.954,311.464 "/>
<g>
	<polygon style="fill:#4D4D4D;" points="386.954,311.124 386.954,345.677 382.733,345.677 357.859,345.677 357.859,311.124 
		382.733,311.124 	"/>
	<polygon style="fill:#4D4D4D;" points="154.141,311.124 154.141,345.677 149.919,345.677 125.046,345.677 125.046,311.124 
		149.919,311.124 	"/>
</g>
<g>
</g>
<g>
</g>
<g>
</g>
<g>
</g>
<g>
</g>
<g>
</g>
<g>
</g>
<g>
</g>
<g>
</g>
<g>
</g>
<g>
</g>
<g>
</g>
<g>
</g>
<g>
</g>
<g>
</g>
</svg>
