<?xml version="1.0" encoding="iso-8859-1"?>
<!-- Generator: Adobe Illustrator 19.0.0, SVG Export Plug-In . SVG Version: 6.00 Build 0)  -->
<svg version="1.1" id="Layer_1" xmlns="http://www.w3.org/2000/svg" xmlns:xlink="http://www.w3.org/1999/xlink" x="0px" y="0px"
	 viewBox="0 0 512.001 512.001" style="enable-background:new 0 0 512.001 512.001;" xml:space="preserve">
<rect x="426.281" y="217.482" transform="matrix(-0.9757 0.2191 -0.2191 -0.9757 975.5744 345.0474)" style="fill:#808080;" width="84.747" height="18.272"/>
<path style="fill:#CCCCCC;" d="M435.417,226.625c4.604,5.859,7.346,13.253,7.346,21.281v16.202H339.464v-43.383
	c0-4.027,3.266-7.293,7.293-7.293h61.545C419.313,213.432,429.108,218.597,435.417,226.625z"/>
<path style="fill:#D39A29;" d="M121.828,84.429v65.902H90.241c-9.344,0-16.92-7.577-16.92-16.92V101.35
	c0-9.344,7.577-16.92,16.92-16.92h31.587V84.429z"/>
<path style="fill:#FCBB29;" d="M170.323,101.35v32.062c0,9.344-7.577,16.92-16.92,16.92h-31.574V84.429h31.574
	C162.746,84.429,170.323,92.006,170.323,101.35z"/>
<g>
	<rect x="52.268" y="177.96" style="fill:#CCCCCC;" width="139.101" height="48.624"/>
	<rect x="30.211" y="226.584" style="fill:#CCCCCC;" width="183.22" height="86.001"/>
</g>
<path style="fill:#808080;" d="M496.045,261.671L449.45,380.733l-3.569,9.136H17.516l-1.925-9.136L0,306.498h266.988
	c9.011,0,17.275-5.01,21.442-12.999l9.825-18.831c4.168-7.989,12.432-12.999,21.442-12.999h176.347V261.671z"/>
<polygon style="fill:#666666;" points="445.881,389.869 442.313,399.006 425.879,440.984 28.261,440.984 19.441,399.006 
	17.516,389.869 "/>
<path style="fill:#4D4D4D;" d="M121.828,186.316c-3.363,0-6.091-2.727-6.091-6.091V77.108c0-3.363,2.727-6.091,6.091-6.091
	c3.363,0,6.091,2.727,6.091,6.091v103.118C127.919,183.589,125.191,186.316,121.828,186.316z"/>
<g>
	<rect x="17.42" y="217.456" style="fill:#808080;" width="208.799" height="18.272"/>
	<rect x="35.094" y="168.82" style="fill:#808080;" width="173.455" height="18.272"/>
</g>
<g>
	<path style="fill:#4D4D4D;" d="M213.433,248.527V266.8H65.208c-5.043,0-9.136-4.093-9.136-9.136c0-5.043,4.093-9.136,9.136-9.136
		L213.433,248.527L213.433,248.527z"/>
	<path style="fill:#4D4D4D;" d="M191.372,195.994v11.268H99.967c-3.11,0-5.634-2.524-5.634-5.634c0-3.11,2.524-5.634,5.634-5.634
		h91.406V195.994z"/>
	<path style="fill:#4D4D4D;" d="M213.433,278.829v11.268h-91.406c-3.11,0-5.634-2.524-5.634-5.634s2.524-5.634,5.634-5.634h91.406
		V278.829z"/>
</g>
<polygon style="fill:#E54728;" points="449.45,380.733 442.313,399.006 19.441,399.006 15.593,380.733 "/>
<circle style="fill:#4D4D4D;" cx="405.664" cy="305.15" r="15.276"/>
<path style="fill:#333333;" d="M434.893,337.55c-3.365,0-6.091,2.727-6.091,6.091c0,2.278-0.889,4.425-2.491,6.036
	c-1.607,1.606-3.75,2.492-6.036,2.492c-4.701,0-8.527-3.826-8.527-8.527v-36.057c0-3.363-2.727-6.091-6.091-6.091
	c-3.365,0-6.091,2.727-6.091,6.091v36.057c0,4.702-3.826,8.527-8.527,8.527c-2.277,0-4.415-0.884-6.023-2.492
	c-1.614-1.614-2.504-3.757-2.504-6.035c0-3.363-2.727-6.091-6.091-6.091c-3.365,0-6.091,2.727-6.091,6.091
	c0,5.532,2.157,10.734,6.074,14.65c3.907,3.907,9.106,6.059,14.635,6.059c5.701,0,10.87-2.316,14.618-6.056
	c3.748,3.74,8.917,6.056,14.618,6.056c5.539,0,10.742-2.152,14.659-6.069c3.901-3.92,6.049-9.119,6.049-14.639
	C440.985,340.277,438.258,337.55,434.893,337.55z"/>
<g>
</g>
<g>
</g>
<g>
</g>
<g>
</g>
<g>
</g>
<g>
</g>
<g>
</g>
<g>
</g>
<g>
</g>
<g>
</g>
<g>
</g>
<g>
</g>
<g>
</g>
<g>
</g>
<g>
</g>
</svg>
