<?xml version="1.0" encoding="iso-8859-1"?>
<!-- Generator: Adobe Illustrator 19.0.0, SVG Export Plug-In . SVG Version: 6.00 Build 0)  -->
<svg version="1.1" id="Layer_1" xmlns="http://www.w3.org/2000/svg" xmlns:xlink="http://www.w3.org/1999/xlink" x="0px" y="0px"
	 viewBox="0 0 512 512" style="enable-background:new 0 0 512 512;" xml:space="preserve">
<path style="fill:#999999;" d="M195.999,184.538h-21.675H151.31h-12.919l15.299,5.251l22.229,49.034
	c19.111,0.107,41.09,21.312,62.893,19.721c10.39-0.758,20.176-23.816,30.644-24.822L195.999,184.538z"/>
<path style="fill:#CCCCCC;" d="M504.224,258.769c-12.243-6.166-26.111-12.22-38.511-15.315h-0.011c0,0-19.888-5.392-41.527-5.09
	c-22.008,0.307-46.008,6.139-74.444-14.104v-0.011c-24.161,3.307-52.044,6.76-80.274,9.474c-32.435,3.117-65.318,5.258-93.537,5.101
	c-12.377-0.067-23.858-0.583-34.016-1.648l-75.262-76.832H37.595h-8.58H1.664l30.374,10.424l19.704,67.977V256l41.942,21.952
	c21.672,2.96,50.62,6.536,84.108,9.743l2.085,0.953l100.914,6.234c71.787,3.027,150.245,1.827,219.262-9.462
	C513.608,283.199,516.489,264.958,504.224,258.769z"/>
<path style="fill:#F2F2F2;" d="M445.633,228.678l20.069,14.777c0,0-59.578,20.954-115.971-19.194v-0.011
	c19.059-2.612,35.787-5.124,48.534-7.13C414.969,214.495,432.011,218.655,445.633,228.678z"/>
<polygon style="fill:#999999;" points="93.683,277.952 31.358,305.398 0,305.398 30.204,276.562 51.741,256 136.421,259.139 "/>
<g>
	<polygon style="fill:#B3B3B3;" points="191.301,263.456 179.877,288.648 154.104,345.493 136.148,351.656 151.31,351.656 
		172.081,351.656 195.999,351.656 280.78,294.881 280.791,294.881 327.722,263.456 	"/>
	<polygon style="fill:#B3B3B3;" points="72.316,198.101 77.048,207.689 87.629,209.226 79.972,216.689 81.78,227.227 
		72.316,222.251 62.853,227.227 64.66,216.689 57.005,209.226 67.585,207.689 	"/>
</g>
<g>
</g>
<g>
</g>
<g>
</g>
<g>
</g>
<g>
</g>
<g>
</g>
<g>
</g>
<g>
</g>
<g>
</g>
<g>
</g>
<g>
</g>
<g>
</g>
<g>
</g>
<g>
</g>
<g>
</g>
</svg>
