<?xml version="1.0" encoding="iso-8859-1"?>
<!-- Generator: Adobe Illustrator 19.0.0, SVG Export Plug-In . SVG Version: 6.00 Build 0)  -->
<svg version="1.1" id="Layer_1" xmlns="http://www.w3.org/2000/svg" xmlns:xlink="http://www.w3.org/1999/xlink" x="0px" y="0px"
	 viewBox="0 0 512 512" style="enable-background:new 0 0 512 512;" xml:space="preserve">
<g>
	<path style="fill:#088443;" d="M471.208,369.748l-41.842,91.3l-68.826-30.953c-24.639-77.099-1.443-91.274,57.512-84.148
		L471.208,369.748z"/>
	<path style="fill:#088443;" d="M151.46,430.095l-81.686,37.396l-41.855-91.3l66.03-30.244c8.157,27.048,33.053-5.966,52.525,13.492
		C151.241,364.207,146.15,425.907,151.46,430.095z"/>
</g>
<path style="fill:#06B559;" d="M93.948,345.947c-4.678-15.502-7.191-31.945-7.191-48.968v-7.616
	c5.013,2.345,10.876-172.741,0.322-166.208c7.603-23.737,20.09-45.295,36.249-63.504l36.095-31.043
	c27.783-18.08,60.952-28.582,96.57-28.582h0.013c35.618,0,68.787,10.502,96.583,28.582l36.082,31.043
	c16.172,18.208,28.646,39.767,36.262,63.504v0.013c-5.837-3.621-15.425,173.566,0.309,166.195v7.616
	c0,17.023-2.513,33.466-7.191,48.968c-10.167,33.672-30.528,62.924-57.512,84.148c-28.775,22.628-65.089,36.133-104.534,36.133
	c-39.458,0-75.759-13.505-104.547-36.133c-5.309-4.188-10.361-8.673-15.129-13.44C116.86,397.196,102.105,372.996,93.948,345.947z"
	/>
<g>
	<polygon style="fill:#FCBB29;" points="406.648,41.675 388.671,59.652 369.728,78.607 336.159,45.038 352.59,28.608 373.079,8.106 
			"/>
	<polygon style="fill:#FCBB29;" points="511.955,346.862 436.273,511.975 376.236,484.45 393.156,447.543 434.998,356.243 
		451.917,319.337 	"/>
	<polygon style="fill:#FCBB29;" points="512,346.862 456.331,468.316 436.319,511.975 376.281,484.45 393.201,447.543 
		396.294,440.791 435.043,356.243 451.963,319.337 	"/>
</g>
<polygon style="fill:#D39A29;" points="456.331,468.316 436.319,511.975 376.281,484.45 393.201,447.543 396.294,440.791 "/>
<polygon style="fill:#FCBB29;" points="0,346.862 55.669,468.316 75.681,511.975 135.719,484.45 118.799,447.543 115.706,440.791 
	76.957,356.243 60.037,319.337 "/>
<polygon style="fill:#D39A29;" points="55.669,468.316 75.681,511.975 135.719,484.45 118.799,447.543 115.706,440.791 "/>
<path style="fill:#E6E6E6;" d="M456.763,177.446c0.928,20.773,0.425,45.875-3.376,73.684c-2.448,17.964-13.711,31.468-28.144,38.221
	v0.013c-15.734,7.371-35.244,6.688-51.159-5.051c-7.281-5.374-14.897-11.095-22.654-17.049l46.017-73.491h-45.411l53.504-77.138
	l0.296-1.533c6.83,1.701,13.26,4.446,19.098,8.067C443.232,134.521,455.745,154.405,456.763,177.446z"/>
<path style="fill:#0B9B53;" d="M212.025,430.095c-5.309-4.188-10.361-8.673-15.129-13.44
	c-19.471-19.458-34.226-43.659-42.383-70.707c-4.678-15.502-7.191-31.945-7.191-48.968c0,0,0.322-97.331,0.322-173.824
	c7.603-23.737,20.09-45.295,36.249-63.504l36.095-31.043c19.729-12.839,42.183-21.831,66.294-25.98
	c-9.843-1.693-19.952-2.603-30.276-2.603h-0.013c-35.618,0-68.787,10.502-96.57,28.582L123.329,59.65
	c-16.159,18.208-28.646,39.767-36.249,63.504c0,76.493-0.322,173.824-0.322,173.824c0,17.023,2.513,33.466,7.191,48.968
	c8.157,27.048,22.912,51.249,42.383,70.707c4.768,4.768,9.819,9.252,15.129,13.44c28.788,22.628,65.089,36.133,104.547,36.133
	c10.336,0,20.453-0.936,30.28-2.711C258.609,458.516,233.27,446.794,212.025,430.095z"/>
<path style="fill:#CCCCCC;" d="M405.836,115.101l-0.296,1.533l-53.504,77.138h45.411l-46.017,73.491
	c-21.366-16.43-43.814-34.703-63.388-52.782c-33.35-30.837-17.126-86.545,27.615-94.392c21.572-3.789,46.326-6.636,72.937-6.984
	C394.535,113.027,400.308,113.723,405.836,115.101z"/>
<g>
	<polygon style="fill:#FCBB29;" points="175.853,45.038 142.285,78.607 123.329,59.652 105.352,41.675 138.921,8.106 159.41,28.608 
		159.423,28.608 	"/>
	<circle style="fill:#FCBB29;" cx="256" cy="344.143" r="82.833"/>
</g>
<path style="fill:#E6E6E6;" d="M196.343,120.088c44.741,7.848,60.965,63.555,27.603,94.392
	c-26.675,24.652-58.684,49.651-86.042,69.831c-10.85,8.002-23.363,10.863-35.218,9.536l62.666-100.075H119.94l53.504-77.138
	C181.407,117.64,189.062,118.813,196.343,120.088z"/>
<path style="fill:#CCCCCC;" d="M173.444,116.635l-53.504,77.138h45.411l-62.666,100.075c-5.528-0.606-10.915-2.139-15.928-4.484
	c-14.42-6.752-25.695-20.27-28.144-38.234c-3.801-27.809-4.304-52.911-3.376-73.684c1.018-23.054,13.544-42.937,31.842-54.29
	c10.554-6.533,23.028-10.232,36.327-10.051C141.022,113.336,157.838,114.663,173.444,116.635z"/>
<g>
	<polygon style="fill:#FFFFFF;" points="110.875,298.978 94.494,288.719 147.895,203.437 101.475,203.437 165.503,111.127 
		181.386,122.144 138.406,184.108 182.806,184.108 	"/>
	<polygon style="fill:#FFFFFF;" points="359.62,272.393 343.238,262.135 379.992,203.437 333.569,203.437 397.598,111.127 
		413.481,122.144 370.502,184.108 414.901,184.108 	"/>
</g>
<g>
	<path style="fill:#D39A29;" d="M256.001,397.81c-29.591,0-53.666-24.074-53.666-53.666c0-29.591,24.074-53.665,53.666-53.665
		s53.665,24.074,53.665,53.665C309.666,373.735,285.592,397.81,256.001,397.81z M256.001,305.942
		c-21.065,0-38.203,17.138-38.203,38.202c0,21.065,17.138,38.203,38.203,38.203c21.064,0,38.202-17.138,38.202-38.203
		C294.203,323.079,277.065,305.942,256.001,305.942z"/>
	<path style="fill:#D39A29;" d="M202.897,408.183l-10.934-10.934l56.307-56.307v-79.63h15.464v82.833
		c0,2.05-0.814,4.017-2.264,5.468L202.897,408.183z"/>
	
		<rect x="243.867" y="365.696" transform="matrix(-0.7071 -0.7071 0.7071 -0.7071 222.9558 839.207)" style="fill:#D39A29;" width="82.833" height="15.463"/>
</g>
<g>
	<path style="fill:#666666;" d="M108.207,303.821c-2.187,0-4.38-0.121-6.576-0.366l0,0c-6.551-0.719-12.935-2.514-18.97-5.338
		c-18.327-8.582-30.895-25.659-33.624-45.682c-3.412-24.967-4.575-50.343-3.455-75.421c1.122-25.42,14.732-48.625,36.403-62.071
		c12.48-7.725,26.856-11.666,41.553-11.504c16.725,0.22,33.925,1.434,51.119,3.607c7.709,0.973,15.568,2.158,23.355,3.522
		c24.289,4.262,43.7,21.6,50.66,45.252c6.988,23.746,0.027,48.942-18.165,65.758c-22.899,21.162-52.124,44.886-86.866,70.511
		C133.245,299.757,120.865,303.821,108.207,303.821z M122.49,122.762c-10.745,0-21.211,2.97-30.323,8.611
		c-16.234,10.072-26.432,27.457-27.274,46.499c-1.07,23.922,0.04,48.129,3.296,71.948c1.867,13.697,10.129,24.918,22.667,30.791
		c4.107,1.921,8.442,3.143,12.881,3.629c0.008,0.001,0.015,0.001,0.023,0.003c7.108,0.794,17.812,0.104,28.407-7.709
		c34.171-25.206,62.843-48.471,85.219-69.151c12.952-11.971,17.715-29.207,12.742-46.106c-4.944-16.804-18.199-28.644-35.454-31.669
		c-7.482-1.311-15.033-2.448-22.439-3.384c-16.479-2.082-32.949-3.245-48.955-3.456C123.016,122.764,122.751,122.762,122.49,122.762
		z"/>
	<path style="fill:#666666;" d="M403.895,303.788c-12.578,0-25.06-3.961-35.548-11.698c-7.671-5.662-15.341-11.435-22.801-17.158
		c-24.976-19.208-46.527-37.155-64.062-53.351c-18.19-16.821-25.146-42.017-18.156-65.762c6.962-23.652,26.374-40.99,50.66-45.249
		c25.124-4.412,50.183-6.812,74.48-7.129c6.656-0.079,13.285,0.683,19.707,2.285c7.728,1.924,15.082,5.031,21.853,9.232
		c21.663,13.44,35.267,36.641,36.39,62.063c1.12,25.078-0.043,50.455-3.456,75.42c-2.728,20.019-15.299,37.092-33.623,45.665
		l-8.191-17.509c12.537-5.865,20.797-17.081,22.663-30.771c3.256-23.819,4.366-48.025,3.298-71.948
		c-0.841-19.043-11.035-36.425-27.27-46.496c-5.06-3.14-10.558-5.461-16.337-6.901c-4.816-1.201-9.772-1.789-14.781-1.713
		c-23.262,0.304-47.283,2.604-71.39,6.839c-17.257,3.027-30.511,14.867-35.459,31.671c-4.974,16.899-0.215,34.135,12.733,46.107
		c17.105,15.799,38.208,33.369,62.718,52.218c7.356,5.646,14.929,11.345,22.502,16.934c12.165,8.973,27.613,10.497,41.319,4.076
		l8.2,17.504C421.227,301.917,412.538,303.788,403.895,303.788z"/>
	<path style="fill:#666666;" d="M256.006,434.708c-49.937,0-90.565-40.627-90.565-90.565c0-49.937,40.627-90.565,90.565-90.565
		s90.565,40.627,90.565,90.565S305.944,434.708,256.006,434.708z M256.006,269.042c-41.412,0-75.102,33.69-75.102,75.102
		s33.69,75.102,75.102,75.102s75.102-33.691,75.102-75.102S297.418,269.042,256.006,269.042z"/>
</g>
<g>
</g>
<g>
</g>
<g>
</g>
<g>
</g>
<g>
</g>
<g>
</g>
<g>
</g>
<g>
</g>
<g>
</g>
<g>
</g>
<g>
</g>
<g>
</g>
<g>
</g>
<g>
</g>
<g>
</g>
</svg>
