<?xml version="1.0" encoding="iso-8859-1"?>
<!-- Generator: Adobe Illustrator 19.0.0, SVG Export Plug-In . SVG Version: 6.00 Build 0)  -->
<svg version="1.1" id="Layer_1" xmlns="http://www.w3.org/2000/svg" xmlns:xlink="http://www.w3.org/1999/xlink" x="0px" y="0px"
	 viewBox="0 0 512 512" style="enable-background:new 0 0 512 512;" xml:space="preserve">
<path style="fill:#088443;" d="M301.489,512l-13.693-13.695l65.982-65.969c45.787-45.799,45.787-120.31-0.001-166.099l-6.847-6.847
	l13.694-13.694l6.848,6.847c53.338,53.338,53.339,140.136,0,193.488L301.489,512z"/>
<polygon style="fill:#E6E6E6;" points="438.038,207.429 348.739,118.105 362.438,104.416 451.737,193.738 "/>
<path style="fill:#808080;" d="M324.621,159.369c-21.287,0-41.302-8.292-56.356-23.347c-15.055-15.055-23.347-35.072-23.347-56.363
	s8.292-41.308,23.348-56.363c0,0,0-0.001,0.001-0.001c31.073-31.06,81.636-31.06,112.709,0
	c15.057,15.056,23.349,35.074,23.349,56.364c0,21.291-8.292,41.309-23.348,56.363C365.923,151.078,345.908,159.369,324.621,159.369z
	 M281.959,36.992c-11.397,11.397-17.673,26.55-17.673,42.668c0,16.119,6.276,31.272,17.673,42.669
	c11.397,11.397,26.549,17.673,42.662,17.673c16.114,0,31.265-6.276,42.661-17.673c11.398-11.397,17.675-26.55,17.675-42.669
	c0-16.118-6.276-31.271-17.673-42.668c-23.524-23.512-61.8-23.512-85.326,0.001L281.959,36.992z"/>
<path style="fill:#CCCCCC;" d="M451.316,104.85c10.846,10.846,10.859,28.431,0,39.29l-31.427,31.427l-57.379,57.379l-39.303-39.29
	l0.013-0.013l57.366-57.366l31.427-31.427C422.872,93.991,440.457,93.991,451.316,104.85z"/>
<path style="fill:#999999;" d="M451.316,104.85c-3.161-3.161-6.901-5.374-10.87-6.695c3.212,9.66,1.006,20.727-6.691,28.424
	l-31.427,31.427l-57.379,57.379l-21.739-21.731l-0.003,0.003l39.303,39.29l57.379-57.379l31.427-31.427
	C462.175,133.281,462.162,115.696,451.316,104.85z"/>
<path style="fill:#0B9B53;" d="M378.817,240.215l-24.325,24.338c-6.133-13.441-51.854,11.092-62.919,0.027
	c-11.065-11.052,13.468-56.774,0.027-62.894l24.338-24.338l11.788,11.788l39.303,39.29L378.817,240.215z"/>
<g>
	<path style="fill:#06B559;" d="M354.492,264.553c21.382,46.895,12.782,104.119-25.797,142.699l-29.568,29.568L119.333,257.026
		l29.568-29.568c24.816-24.816,57.353-37.237,89.89-37.237c18.038,0,36.088,3.822,52.808,11.465
		c13.441,6.12,26.03,14.719,37.095,25.772C339.76,238.523,348.359,251.112,354.492,264.553z"/>
	<path style="fill:#06B559;" d="M119.333,257.026L299.127,436.82l-29.555,29.555c-49.645,49.645-130.149,49.645-179.794,0
		s-49.645-130.136,0-179.781L119.333,257.026z"/>
</g>
<path style="fill:#0B9B53;" d="M328.695,407.252l-59.125,59.125c-49.639,49.639-130.146,49.639-179.795-0.009
	c27.061,27.061,89.254,8.746,138.893-40.892l59.125-59.125c38.582-38.582,58.239-84.735,52.397-116.105
	c-1.689-8.993-5.469-16.753-11.504-22.788c11.065,11.065,19.675,23.655,25.81,37.095
	C375.868,311.452,367.278,368.67,328.695,407.252z"/>
<path style="fill:#088443;" d="M306.788,454.152c-2.476,0-4.954-0.944-6.844-2.833l-12.879-12.866L107.653,259.04
	c-3.782-3.782-3.782-9.914,0.001-13.694c3.782-3.782,9.914-3.781,13.694,0l192.282,192.272c3.784,3.779,3.787,9.911,0.006,13.694
	C311.746,453.206,309.268,454.152,306.788,454.152z"/>
<g>
</g>
<g>
</g>
<g>
</g>
<g>
</g>
<g>
</g>
<g>
</g>
<g>
</g>
<g>
</g>
<g>
</g>
<g>
</g>
<g>
</g>
<g>
</g>
<g>
</g>
<g>
</g>
<g>
</g>
</svg>
