<?xml version="1.0" encoding="iso-8859-1"?>
<!-- Generator: Adobe Illustrator 19.0.0, SVG Export Plug-In . SVG Version: 6.00 Build 0)  -->
<svg version="1.1" id="Layer_1" xmlns="http://www.w3.org/2000/svg" xmlns:xlink="http://www.w3.org/1999/xlink" x="0px" y="0px"
	 viewBox="0 0 512.002 512.002" style="enable-background:new 0 0 512.002 512.002;" xml:space="preserve">
<g>
	<path style="fill:#666666;" d="M93.001,316.739l-0.358-0.144c-7.373-0.178-14.818,2.541-20.449,8.173
		c-10.905,10.905-10.905,28.586,0,39.49c6.812,6.812,16.261,9.389,25.054,7.672l1.217-0.31c1.468,2.327,3.102,4.582,4.904,6.74
		l7.969,9.544l5.75,6.896c6.979-5.237,14.818-8.482,22.848-9.843c2.946-0.501,5.918-0.752,8.889-0.752
		c16.739,0,33.227,7.898,43.547,22.752l64.737,93.24c9.76,14.067,29.863,15.856,41.972,3.758l39.562-39.562
		c5.643-5.644,6.49-14.495,2.016-21.106l-45.301-66.967c-13.243-19.567-10.737-45.779,5.977-62.482l4.784-4.796l-0.108-0.108
		c-6.825,6.825-15.606,10.284-24.077,10.284c-7.397,0-14.555-2.649-19.924-8.018c-9.544-9.544-12.634-23.289-9.521-36.425
		c1.897-8.005,6.097-15.784,12.551-22.239l6.383-6.395l29.052-29.135l36.198-36.281l1.849-1.861l34.82-34.82
		c2.585-2.585,2.583-6.777-0.006-9.36c-0.561-0.561-1.085-1.134-1.587-1.718c-0.513-0.596-1.002-1.217-1.467-1.837
		c-8.817-12.002-7.803-28.968,3.054-39.825l58.521-58.508L405.717,6.832c-2.921-2.9-7.637-2.893-10.549,0.018l-5.054,5.054
		l-220.135,220.15l-12.647,12.647l-8.781,8.769l-12.647,12.647l-8.77,8.781l-12.647,12.647l-7.361,7.361
		c-0.477,0.477-0.943,0.954-1.395,1.443c-1.98,2.111-3.782,4.33-5.417,6.634c-1.885,2.66-3.531,5.441-4.939,8.304
		C94.493,313.076,93.705,314.89,93.001,316.739z"/>
	<path style="fill:#666666;" d="M446.411,44.465l-5.588,5.588l-37.12-37.12l5.588-5.588c2.039-2.04,5.345-2.04,7.385,0
		l29.735,29.735C448.45,39.12,448.45,42.426,446.411,44.465z"/>
</g>
<path style="fill:#B3B3B3;" d="M271.534,246.251c0.012,24.291,23.158,49.155,47.402,49.966l-42.294,31.688l-41.162-51.302
	l35.948-30.459"/>
<g>
	<polygon style="fill:#666666;" points="390.114,11.907 378.219,0 364.809,13.41 372.087,46.34 	"/>
	<path style="fill:#666666;" d="M107.588,301.386l-15.335-15.352c-2.328-2.331-2.326-6.108,0.004-8.436l0,0
		c2.331-2.328,6.108-2.326,8.436,0.004l15.335,15.352L107.588,301.386z"/>
	<path style="fill:#666666;" d="M445.797,46.735c2.918,2.918,2.918,7.648,0,10.567l-73.269,73.269l-25.496,23.742
		c-8.817-12.003,1.074-60.131,11.931-70.988l72.897-50.527L445.797,46.735z"/>
</g>
<path style="fill:#808080;" d="M252.492,274.779c-3.114,13.136-0.024,26.88,9.521,36.425c5.369,5.369,12.528,8.018,19.925,8.018
	c8.471,0,17.252-3.459,24.077-10.284l0.108,0.108l-4.784,4.796c-16.715,16.703-19.22,42.915-5.977,62.482l45.301,66.967
	c4.474,6.61,3.627,15.462-2.016,21.106l-39.562,39.562c-12.11,12.098-32.214,10.309-41.972-3.758l-64.737-93.24
	c-10.32-14.854-26.809-22.752-43.547-22.752c-2.971,0-5.941,0.25-8.889,0.752c-8.029,1.36-15.868,4.605-22.848,9.843l-5.75-6.896
	l-7.969-9.544c-1.802-2.16-3.436-4.415-4.904-6.74c-10.487-16.655-12.217-37.057-5.464-54.882c0.704-1.85,1.492-3.663,2.374-5.453
	c1.408-2.863,3.054-5.644,4.939-8.304c1.634-2.302,3.436-4.521,5.417-6.634c0.453-0.489,0.918-0.966,1.396-1.443l7.361-7.361
	l12.647-12.647l8.77-8.781l12.647-12.647l8.781-8.769l12.647-12.647L390.114,11.907l5.054-5.054
	c2.911-2.911,7.627-2.918,10.549-0.018l26.142,25.964l-58.521,58.508c-10.858,10.856-11.871,27.822-3.054,39.825
	c0.466,0.621,0.954,1.24,1.467,1.837c0.501,0.585,1.026,1.157,1.587,1.718l0,0c2.588,2.582,2.592,6.774,0.006,9.359l-34.82,34.82
	l-1.849,1.861l-36.198,36.281l-29.052,29.135l-6.383,6.395C258.589,258.994,254.389,266.772,252.492,274.779z"/>
<g>
	<path style="fill:#666666;" d="M195.022,269.731c-1.742,1.753-4.033,2.624-6.323,2.624c-2.291,0-4.582-0.871-6.323-2.624
		L157.333,244.7l12.647-12.647l25.043,25.031C198.517,260.568,198.517,266.236,195.022,269.731z"/>
	<path style="fill:#666666;" d="M173.594,291.159c-1.742,1.753-4.033,2.624-6.323,2.624c-2.291,0-4.582-0.871-6.323-2.624
		l-25.043-25.043l12.647-12.647l25.043,25.043C177.09,282.009,177.09,287.664,173.594,291.159z"/>
	<path style="fill:#666666;" d="M152.166,312.587c-1.742,1.754-4.033,2.624-6.323,2.624c-2.291,0-4.582-0.871-6.323-2.624
		l-25.031-25.043l12.647-12.647l25.031,25.043C155.662,303.436,155.662,309.104,152.166,312.587z"/>
	<path style="fill:#666666;" d="M130.751,334.003c-1.742,1.753-4.033,2.624-6.323,2.624c-2.291,0-4.581-0.871-6.323-2.624
		l-22.728-22.716c1.408-2.863,3.054-5.644,4.939-8.304c1.634-2.302,3.436-4.521,5.417-6.634l25.019,25.007
		C134.246,324.839,134.246,330.507,130.751,334.003z"/>
	<path style="fill:#666666;" d="M344.341,228.14l-7.368-14.511c-0.045-0.099-0.091-0.195-0.127-0.265
		c-4.659-9.347-2.854-20.607,4.485-28.013l1.849-1.861c1.272-1.281,1.907-2.953,1.907-4.627c0-1.686-0.647-3.371-1.936-4.654
		c-2.57-2.554-6.726-2.541-9.281,0.03l-73.466,73.657c-9.391,9.391-14.924,21.557-15.58,34.26
		c-0.67,12.959,3.786,24.921,12.549,33.684c6.409,6.409,15.133,9.939,24.564,9.939c9.63,0,19.09-3.644,26.636-10.258
		c0.186-0.163,0.752-0.659,25.952-25.607C350.876,273.57,354.819,248.742,344.341,228.14z M325.271,280.614
		c-9.57,9.475-24.088,23.829-25.423,25.106c-5.14,4.474-11.496,6.938-17.91,6.938c-5.925,0-11.354-2.165-15.286-6.096
		c-6.101-6.101-9.199-14.527-8.724-23.727c0.489-9.454,4.664-18.567,11.759-25.662l35.401-35.493l0.057,0.058
		c3.364-3.319,8.352-7.17,12.994-6.658c4.411,0.485,7.22,4.763,7.248,4.806c0.034,0.052,0.081,0.094,0.116,0.145l7.137,14.054
		C340.537,249.612,337.566,268.319,325.271,280.614z"/>
	<path style="fill:#666666;" d="M223.048,409.919c-2.29,0-4.579-0.873-6.326-2.62c-3.494-3.494-3.495-9.159-0.001-12.655
		l35.876-35.888c3.492-3.494,9.158-3.496,12.655-0.002c3.494,3.494,3.495,9.159,0.001,12.655l-35.876,35.888
		C227.628,409.044,225.337,409.919,223.048,409.919z"/>
	<path style="fill:#666666;" d="M242.22,435.594c-2.29,0-4.58-0.873-6.327-2.621c-3.494-3.494-3.494-9.16,0-12.655l33.191-33.191
		c3.495-3.494,9.16-3.494,12.656,0c3.494,3.494,3.494,9.16,0,12.655l-33.191,33.191C246.8,434.72,244.51,435.594,242.22,435.594z"/>
	<path style="fill:#666666;" d="M261.846,460.827c-2.291,0-4.58-0.873-6.327-2.621c-3.494-3.494-3.494-9.16,0-12.655l29.6-29.6
		c3.495-3.494,9.16-3.493,12.656,0c3.494,3.494,3.494,9.16,0,12.655l-29.6,29.6C266.426,459.954,264.135,460.827,261.846,460.827z"
		/>
	<path style="fill:#666666;" d="M279.671,487.85c-2.29,0-4.58-0.873-6.327-2.621c-3.494-3.494-3.494-9.16,0-12.655l29.599-29.6
		c3.495-3.494,9.16-3.494,12.656,0c3.494,3.494,3.494,9.16,0,12.655L286,485.229C284.251,486.977,281.96,487.85,279.671,487.85z"/>
	<path style="fill:#666666;" d="M373.34,134.687c2.588,2.582,2.592,6.774,0.006,9.359l-34.82,34.82l-1.849,1.861l-36.198,36.281
		l-29.052,29.135l-6.383,6.395c-6.454,6.454-10.654,14.234-12.551,22.239L139.937,384.957c-8.029,1.36-15.868,4.605-22.848,9.843
		l-5.75-6.896l260.414-254.937C372.254,133.553,372.779,134.126,373.34,134.687L373.34,134.687z"/>
</g>
<g>
</g>
<g>
</g>
<g>
</g>
<g>
</g>
<g>
</g>
<g>
</g>
<g>
</g>
<g>
</g>
<g>
</g>
<g>
</g>
<g>
</g>
<g>
</g>
<g>
</g>
<g>
</g>
<g>
</g>
</svg>
