<?xml version="1.0" encoding="iso-8859-1"?>
<!-- Generator: Adobe Illustrator 19.0.0, SVG Export Plug-In . SVG Version: 6.00 Build 0)  -->
<svg version="1.1" id="Layer_1" xmlns="http://www.w3.org/2000/svg" xmlns:xlink="http://www.w3.org/1999/xlink" x="0px" y="0px"
	 viewBox="0 0 511.997 511.997" style="enable-background:new 0 0 511.997 511.997;" xml:space="preserve">
<rect x="227.322" y="256.809" transform="matrix(0.7071 0.7071 -0.7071 0.7071 271.8767 -89.0891)" style="fill:#999999;" width="32.312" height="53.661"/>
<g>
	<path style="fill:#666666;" d="M195.466,343.617c-1.803,1.803-4.726,1.803-6.528,0l-10.88-10.88c-1.803-1.803-1.803-4.726,0-6.528
		c1.803-1.803,4.726-1.803,6.528,0l10.88,10.88C197.269,338.892,197.269,341.815,195.466,343.617z"/>
	<path style="fill:#666666;" d="M210.189,351.712l-26.644,26.632l-7.343-7.345l26.644-26.631c3.536-3.536,3.536-9.291-0.001-12.828
		l-10.315-10.315l7.344-7.344l10.315,10.315C217.776,331.782,217.776,344.126,210.189,351.712z"/>
</g>
<path style="fill:#B3B3B3;" d="M108.897,422.131c-1.678-5.253-0.283-11.005,3.618-14.904l29.148-29.148l-11.967-25.839
	L14.065,467.87c-3.311,3.311-2.811,8.813,1.043,11.474l45.383,31.326c2.98,2.056,7.003,1.691,9.562-0.869l44.144-44.143
	c4.003-4.003,5.437-9.908,3.714-15.302L108.897,422.131z M62.916,484.297l-19.309-13.328l42.958-42.958
	c0.108,0.382,0.224,0.762,0.345,1.142l7.54,23.609L62.916,484.297z"/>
<polygon style="fill:#808080;" points="181.104,287.765 172.128,296.741 154.582,279.197 160.703,267.365 "/>
<g>
	<polygon style="fill:#666666;" points="381.838,130.299 381.677,130.174 372.083,138.004 414.02,216.457 423.4,207.077 
		397.528,158.691 491.086,231.873 500.129,222.83 	"/>
	<polygon style="fill:#666666;" points="451.881,42.018 439.641,54.258 419.801,34.418 427.005,17.142 	"/>
</g>
<g>
	
		<rect x="224.282" y="101.538" transform="matrix(-0.7071 0.7071 -0.7071 -0.7071 712.047 -74.5525)" style="fill:#999999;" width="294.364" height="17.31"/>
	<path style="fill:#999999;" d="M377.108,141.009c-0.077,0.077-0.157,0.152-0.238,0.225l-73.77,73.781l-8.977-8.975l73.938-73.95
		c0.077-0.077,0.156-0.152,0.237-0.225l17.337-17.347l-1.966-26.47l12.66-0.941l2.181,29.37c0.136,1.841-0.535,3.651-1.841,4.957
		l-19.561,19.572C377.109,141.008,377.108,141.009,377.108,141.009z"/>
</g>
<path style="fill:#B3B3B3;" d="M199.022,403.105l-11.479,8.713c-3.461,2.627-8.43,1.725-10.746-1.951l-25.868-41.054l9.178-23.564
	l18.876-4.49c-1.662,6.774,1.535,16.583,6.174,26.219c4.862,10.099,11.319,20.003,15.47,25.999
	C202.887,396.242,202.185,400.704,199.022,403.105z"/>
<path style="fill:#666666;" d="M141.8,377.94l-29.177-29.177c-3.415-3.415-3.415-8.951,0-12.365L248.42,200.591l30.892-15.892
	l27.871,27.859L141.8,377.94z"/>
<path style="fill:#808080;" d="M279.971,239.758l-21.211,21.222l-0.138-0.138l-37.944,37.944l0.138,0.138l-31.147,31.147
	l-12.753-12.762c-2.868-2.869-2.867-7.52,0.001-10.387l80.429-80.429c2.585-2.585,6.775-2.585,9.359,0L279.971,239.758z"/>
<path style="fill:#4D4D4D;" d="M316.738,330.024l-26.868,26.877c-3.058,3.059-8.018,3.06-11.077,0.001L233.48,311.59l37.944-37.944
	l45.314,45.303C319.796,322.006,319.797,326.965,316.738,330.024z"/>
<g>
</g>
<g>
</g>
<g>
</g>
<g>
</g>
<g>
</g>
<g>
</g>
<g>
</g>
<g>
</g>
<g>
</g>
<g>
</g>
<g>
</g>
<g>
</g>
<g>
</g>
<g>
</g>
<g>
</g>
</svg>
